<svg xmlns="http://www.w3.org/2000/svg" viewBox="0 0 545 545"><defs><style>.cls-1,.cls-2,.cls-4,.cls-5{fill:none;stroke:#fff;stroke-linecap:round;stroke-linejoin:round;}.cls-1{stroke-width:2.5px;}.cls-3{fill:#fff;}.cls-4{stroke-width:0.71px;stroke-dasharray:1.86 1.86;}.cls-5{stroke-width:0.75px;}</style></defs><title>PLANO-NIHUIL</title><g id="ACERO_INOX" data-name="ACERO INOX"><g id="SPLINE"><path class="cls-1" d="M197.93,403.84c-.46.24-.88,0-1.25-.7s-.32-1.18.14-1.42.87,0,1.24.71S198.38,403.61,197.93,403.84Z"/></g><g id="SPLINE-2" data-name="SPLINE"><path class="cls-1" d="M201.46,405.54c-.45.24-.87,0-1.24-.7s-.32-1.18.14-1.42.87,0,1.24.7S201.92,405.3,201.46,405.54Z"/></g><g id="SPLINE-3" data-name="SPLINE"><path class="cls-1" d="M205,407.23c-.46.24-.87,0-1.24-.7s-.32-1.18.14-1.42.87,0,1.24.7S205.46,407,205,407.23Z"/></g><g id="SPLINE-4" data-name="SPLINE"><path class="cls-1" d="M208.54,408.93c-.46.24-.87,0-1.24-.71s-.32-1.18.14-1.41.87,0,1.24.7S209,408.69,208.54,408.93Z"/></g><g id="SPLINE-5" data-name="SPLINE"><path class="cls-1" d="M212.08,410.62c-.46.24-.87,0-1.24-.7s-.32-1.18.14-1.42.87,0,1.24.7S212.54,410.38,212.08,410.62Z"/></g><g id="LINE"><line class="cls-1" x1="306.31" y1="445.14" x2="306.35" y2="458.57"/></g><g id="LINE-2" data-name="LINE"><line class="cls-2" x1="374.32" y1="110.42" x2="326.61" y2="88.46"/></g><g id="SOLID"><polygon class="cls-3" points="373.46 112.27 385.45 115.54 375.17 108.56 373.46 112.27"/></g><g id="SOLID-2" data-name="SOLID"><polygon class="cls-3" points="327.47 86.6 315.48 83.33 325.76 90.31 327.47 86.6"/></g><g id="LINE-3" data-name="LINE"><line class="cls-2" x1="221.02" y1="84.54" x2="186.13" y2="101.9"/></g><g id="SOLID-3" data-name="SOLID"><polygon class="cls-3" points="221.93 86.37 232 79.08 220.11 82.71 221.93 86.37"/></g><g id="SOLID-4" data-name="SOLID"><polygon class="cls-3" points="185.22 100.07 175.16 107.36 187.04 103.73 185.22 100.07"/></g><g id="LINE-4" data-name="LINE"><line class="cls-2" x1="459.33" y1="413.29" x2="415.28" y2="393.04"/></g><g id="LINE-5" data-name="LINE"><line class="cls-2" x1="453.56" y1="191.75" x2="453.56" y2="397.58"/></g><g id="SOLID-5" data-name="SOLID"><polygon class="cls-3" points="455.6 191.75 453.56 179.49 451.51 191.75 455.6 191.75"/></g><g id="SOLID-6" data-name="SOLID"><polygon class="cls-3" points="451.51 397.58 453.56 409.84 455.6 397.58 451.51 397.58"/></g><g id="LINE-6" data-name="LINE"><line class="cls-2" x1="453.33" y1="422.5" x2="453.33" y2="410.53"/></g><g id="LINE-7" data-name="LINE"><line class="cls-2" x1="73.64" y1="394.77" x2="249.51" y2="475.83"/></g><g id="SOLID-7" data-name="SOLID"><polygon class="cls-3" points="74.49 392.92 62.5 389.64 72.78 396.63 74.49 392.92"/></g><g id="SOLID-8" data-name="SOLID"><polygon class="cls-3" points="248.65 477.68 260.64 480.96 250.36 473.97 248.65 477.68"/></g><g id="LINE-8" data-name="LINE"><line class="cls-2" x1="344.45" y1="476.45" x2="306.19" y2="458.5"/></g><g id="LINE-9" data-name="LINE"><line class="cls-2" x1="355.45" y1="471.04" x2="442.3" y2="428.3"/></g><g id="SOLID-9" data-name="SOLID"><polygon class="cls-3" points="354.55 469.2 344.45 476.45 356.36 472.87 354.55 469.2"/></g><g id="SOLID-10" data-name="SOLID"><polygon class="cls-3" points="443.2 430.14 453.3 422.89 441.4 426.47 443.2 430.14"/></g><g id="LINE-10" data-name="LINE"><line class="cls-2" x1="459.18" y1="425.19" x2="415.3" y2="405.01"/></g><g id="SPLINE-6" data-name="SPLINE"><path class="cls-1" d="M255.69,349.84a4.58,4.58,0,0,1,2.41.55"/></g><g id="SPLINE-7" data-name="SPLINE"><path class="cls-1" d="M258.11,350.39a8.34,8.34,0,0,1,2.41,1.76,3.13,3.13,0,0,1,1,1.87c0,.54-.37.87-1,.94a4.58,4.58,0,0,1-2.41-.55,8.08,8.08,0,0,1-2.42-1.76,3.13,3.13,0,0,1-1-1.87c0-.54.37-.87,1-.94"/></g><g id="LINE-11" data-name="LINE"><line class="cls-1" x1="257.32" y1="351.47" x2="257.32" y2="351.01"/></g><g id="LINE-12" data-name="LINE"><line class="cls-1" x1="257.32" y1="351.01" x2="255.87" y2="350.32"/></g><g id="LINE-13" data-name="LINE"><line class="cls-1" x1="255.87" y1="350.32" x2="255.87" y2="350.78"/></g><g id="LINE-14" data-name="LINE"><line class="cls-1" x1="255.87" y1="350.78" x2="256.38" y2="351.02"/></g><g id="LINE-15" data-name="LINE"><line class="cls-1" x1="256.38" y1="351.02" x2="256.38" y2="352.59"/></g><g id="LINE-16" data-name="LINE"><line class="cls-1" x1="256.38" y1="352.59" x2="256.82" y2="352.8"/></g><g id="LINE-17" data-name="LINE"><line class="cls-1" x1="256.82" y1="352.8" x2="256.82" y2="351.23"/></g><g id="LINE-18" data-name="LINE"><line class="cls-1" x1="256.82" y1="351.23" x2="257.32" y2="351.47"/></g><g id="LINE-19" data-name="LINE"><line class="cls-1" x1="257.81" y1="352.59" x2="257.37" y2="352.38"/></g><g id="SPLINE-8" data-name="SPLINE"><path class="cls-1" d="M257.37,352.38a1.21,1.21,0,0,0,.73,1.08c.37.17.74.18.74-.33a1.09,1.09,0,0,0-.49-.82c-.25-.2-.49-.34-.49-.5s.12-.12.21-.07a.4.4,0,0,1,.27.37"/></g><g id="LINE-20" data-name="LINE"><line class="cls-1" x1="258.34" y1="352.11" x2="258.78" y2="352.32"/></g><g id="SPLINE-9" data-name="SPLINE"><path class="cls-1" d="M258.78,352.32a1.14,1.14,0,0,0-.67-1c-.32-.15-.69-.16-.69.28a1.09,1.09,0,0,0,.49.83c.25.19.49.34.49.52s-.14.14-.27.08a.5.5,0,0,1-.32-.47"/></g><g id="SPLINE-10" data-name="SPLINE"><path class="cls-1" d="M260.15,354.76a1.42,1.42,0,0,0,1-.29.76.76,0,0,0,.21-.54,1.71,1.71,0,0,0-.21-.74,4.26,4.26,0,0,0-.67-.92,3.83,3.83,0,0,0-.28-.29"/></g><g id="SPLINE-11" data-name="SPLINE"><path class="cls-1" d="M260.29,352.14a4.23,4.23,0,0,1,.63.93,1.79,1.79,0,0,1,.2.77.83.83,0,0,1-.2.57,1.16,1.16,0,0,1-.77.35"/></g><g id="LINE-21" data-name="LINE"><line class="cls-1" x1="260.33" y1="352.91" x2="260.33" y2="352.46"/></g><g id="LINE-22" data-name="LINE"><line class="cls-1" x1="260.33" y1="352.46" x2="258.89" y2="351.76"/></g><g id="LINE-23" data-name="LINE"><line class="cls-1" x1="258.89" y1="351.76" x2="258.89" y2="352.22"/></g><g id="LINE-24" data-name="LINE"><line class="cls-1" x1="258.89" y1="352.22" x2="259.39" y2="352.46"/></g><g id="LINE-25" data-name="LINE"><line class="cls-1" x1="259.39" y1="352.46" x2="259.39" y2="354.03"/></g><g id="LINE-26" data-name="LINE"><line class="cls-1" x1="259.39" y1="354.03" x2="259.83" y2="354.24"/></g><g id="LINE-27" data-name="LINE"><line class="cls-1" x1="259.83" y1="354.24" x2="259.83" y2="352.67"/></g><g id="LINE-28" data-name="LINE"><line class="cls-1" x1="259.83" y1="352.67" x2="260.33" y2="352.91"/></g><g id="SPLINE-12" data-name="SPLINE"><path class="cls-1" d="M256.06,350a1.47,1.47,0,0,0-.95.3.72.72,0,0,0-.21.54,1.58,1.58,0,0,0,.21.74,4.26,4.26,0,0,0,.67.92,3.83,3.83,0,0,0,.28.29"/></g><g id="SPLINE-13" data-name="SPLINE"><path class="cls-1" d="M256.06,352.81l-.14-.16a4.23,4.23,0,0,1-.63-.93,1.79,1.79,0,0,1-.2-.77.83.83,0,0,1,.2-.57,1.21,1.21,0,0,1,.77-.36"/></g><g id="SPLINE-14" data-name="SPLINE"><path class="cls-1" d="M260.29,352.14l-.14-.16"/></g><g id="LINE-29" data-name="LINE"><line class="cls-1" x1="292.69" y1="266.45" x2="223.23" y2="234.47"/></g><g id="LINE-30" data-name="LINE"><line class="cls-1" x1="350.44" y1="238.46" x2="293.44" y2="266.52"/></g><g id="LINE-31" data-name="LINE"><line class="cls-1" x1="213.5" y1="409.88" x2="212.08" y2="410.62"/></g><g id="LINE-32" data-name="LINE"><line class="cls-1" x1="210.98" y1="408.5" x2="212.4" y2="407.76"/></g><g id="LINE-33" data-name="LINE"><line class="cls-1" x1="209.96" y1="408.19" x2="208.54" y2="408.93"/></g><g id="LINE-34" data-name="LINE"><line class="cls-1" x1="207.44" y1="406.81" x2="208.86" y2="406.07"/></g><g id="LINE-35" data-name="LINE"><line class="cls-1" x1="206.43" y1="406.49" x2="205" y2="407.23"/></g><g id="LINE-36" data-name="LINE"><line class="cls-1" x1="203.9" y1="405.11" x2="205.32" y2="404.37"/></g><g id="LINE-37" data-name="LINE"><line class="cls-1" x1="202.89" y1="404.8" x2="201.46" y2="405.54"/></g><g id="LINE-38" data-name="LINE"><line class="cls-1" x1="200.36" y1="403.42" x2="201.78" y2="402.68"/></g><g id="LINE-39" data-name="LINE"><line class="cls-1" x1="199.35" y1="403.11" x2="197.93" y2="403.84"/></g><g id="LINE-40" data-name="LINE"><line class="cls-1" x1="196.82" y1="401.72" x2="198.24" y2="400.98"/></g><g id="SPLINE-15" data-name="SPLINE"><path class="cls-1" d="M197.48,401.38q.24-.66.93-.33a1.69,1.69,0,0,1,1,1.67"/></g><g id="SPLINE-16" data-name="SPLINE"><path class="cls-1" d="M199.41,402.72c0,.67-.28.93-.83.78"/></g><g id="SPLINE-17" data-name="SPLINE"><path class="cls-1" d="M211.64,408.16c.16-.45.47-.56.93-.34a1.71,1.71,0,0,1,1,1.67"/></g><g id="SPLINE-18" data-name="SPLINE"><path class="cls-1" d="M213.57,409.49c0,.68-.28.94-.83.79"/></g><g id="SPLINE-19" data-name="SPLINE"><path class="cls-1" d="M208.1,406.46q.24-.66.93-.33a1.71,1.71,0,0,1,1,1.67"/></g><g id="SPLINE-20" data-name="SPLINE"><path class="cls-1" d="M210,407.8c0,.67-.28.93-.83.78"/></g><g id="SPLINE-21" data-name="SPLINE"><path class="cls-1" d="M204.56,404.77c.16-.44.47-.56.93-.33a1.68,1.68,0,0,1,1,1.67"/></g><g id="SPLINE-22" data-name="SPLINE"><path class="cls-1" d="M206.49,406.11c0,.67-.28.93-.83.78"/></g><g id="SPLINE-23" data-name="SPLINE"><path class="cls-1" d="M201,403.08c.16-.45.47-.56.93-.34a1.7,1.7,0,0,1,1,1.67"/></g><g id="SPLINE-24" data-name="SPLINE"><path class="cls-1" d="M203,404.41c0,.67-.28.94-.83.79"/></g><g id="SPLINE-25" data-name="SPLINE"><path class="cls-1" d="M411.71,400.33a.06.06,0,0,1,0,0,.33.33,0,0,1-.17.31"/></g><g id="SPLINE-26" data-name="SPLINE"><path class="cls-1" d="M411.92,399.63a.49.49,0,0,0-.39,0,1.32,1.32,0,0,0-.45.46,1.4,1.4,0,0,0-.18.67.59.59,0,0,0,.18.48l.07,0"/></g><g id="SPLINE-27" data-name="SPLINE"><path class="cls-1" d="M411.82,400.31a.08.08,0,0,0-.08,0,.27.27,0,0,0-.13.13.36.36,0,0,0-.06.2.13.13,0,0,0,0,.12"/></g><g id="ARC"><path class="cls-1" d="M411.15,401.3a.63.63,0,0,0,.52,0"/></g><g id="SPLINE-28" data-name="SPLINE"><path class="cls-1" d="M411.92,399.63a.33.33,0,0,1,.1.06.69.69,0,0,1,.25.53v0a1.26,1.26,0,0,1-.17.6,1.22,1.22,0,0,1-.27.33l-.16.1"/></g><g id="LINE-41" data-name="LINE"><line class="cls-1" x1="108.22" y1="355.43" x2="108.22" y2="367.25"/></g><g id="SPLINE-29" data-name="SPLINE"><path class="cls-1" d="M108.38,367.47a.1.1,0,0,1,0,0,.18.18,0,0,1-.08-.09s0,0,0-.08"/></g><g id="ARC-2" data-name="ARC"><path class="cls-1" d="M306.37,458.57a.41.41,0,0,0,.16,0"/></g><g id="ARC-3" data-name="ARC"><path class="cls-1" d="M306.2,458.54a.51.51,0,0,0,.17,0"/></g><g id="LINE-42" data-name="LINE"><line class="cls-1" x1="306.2" y1="458.54" x2="108.38" y2="367.47"/></g><g id="SPLINE-30" data-name="SPLINE"><path class="cls-1" d="M415.31,405,306.53,458.54"/></g><g id="SPLINE-31" data-name="SPLINE"><path class="cls-1" d="M108.22,355.42a.29.29,0,0,1,0-.09.32.32,0,0,1,.08-.09l0,0"/></g><g id="SPLINE-32" data-name="SPLINE"><path class="cls-1" d="M108.36,355.22l108.78-53.54"/></g><g id="SPLINE-33" data-name="SPLINE"><path class="cls-1" d="M415.35,393.07a.24.24,0,0,0-.13-.23"/></g><g id="ARC-4" data-name="ARC"><path class="cls-1" d="M217.22,301.68h-.08"/></g><g id="LINE-43" data-name="LINE"><line class="cls-1" x1="217.22" y1="301.68" x2="218.57" y2="302.31"/></g><g id="LINE-44" data-name="LINE"><line class="cls-1" x1="415.22" y1="392.84" x2="413.86" y2="392.22"/></g><g id="LINE-45" data-name="LINE"><line class="cls-1" x1="218.57" y1="302.45" x2="218.57" y2="302.31"/></g><g id="LINE-46" data-name="LINE"><line class="cls-1" x1="413.86" y1="392.22" x2="306.31" y2="445.14"/></g><g id="LINE-47" data-name="LINE"><line class="cls-1" x1="413.72" y1="392.29" x2="350.44" y2="363.15"/></g><g id="LINE-48" data-name="LINE"><line class="cls-1" x1="350.44" y1="363.15" x2="293.44" y2="391.21"/></g><g id="LINE-49" data-name="LINE"><line class="cls-1" x1="350.44" y1="232.76" x2="350.44" y2="363.15"/></g><g id="SPLINE-34" data-name="SPLINE"><path class="cls-1" d="M293.44,391.21a1,1,0,0,1-.88,0"/></g><g id="LINE-50" data-name="LINE"><line class="cls-1" x1="292.56" y1="391.21" x2="223.1" y2="359.23"/></g><g id="SPLINE-35" data-name="SPLINE"><path class="cls-1" d="M223.1,228.83c-.3-.13-.31-.27,0-.41"/></g><g id="SPLINE-36" data-name="SPLINE"><path class="cls-1" d="M223.1,359.23c-.13-.06-.2-.14-.2-.22"/></g><g id="SPLINE-37" data-name="SPLINE"><path class="cls-1" d="M223.23,228.77c-.16-.08-.19-.16-.1-.24"/></g><g id="LINE-51" data-name="LINE"><line class="cls-1" x1="350.44" y1="232.76" x2="350.31" y2="232.7"/></g><g id="LINE-52" data-name="LINE"><line class="cls-1" x1="223.07" y1="228.42" x2="223.13" y2="228.39"/></g><g id="LINE-53" data-name="LINE"><line class="cls-1" x1="222.9" y1="304.44" x2="218.57" y2="302.45"/></g><g id="LINE-54" data-name="LINE"><line class="cls-4" x1="228.35" y1="361.64" x2="283.43" y2="387"/></g><g id="LINE-55" data-name="LINE"><line class="cls-1" x1="280.24" y1="100.78" x2="223.24" y2="128.83"/></g><g id="SPLINE-38" data-name="SPLINE"><path class="cls-1" d="M223.24,128.83c-.19.09-.18.19,0,.29"/></g><g id="LINE-56" data-name="LINE"><line class="cls-1" x1="350.35" y1="133.05" x2="350.35" y2="260.39"/></g><g id="LINE-57" data-name="LINE"><line class="cls-5" x1="338.78" y1="149.43" x2="338.78" y2="145.58"/></g><g id="LINE-58" data-name="LINE"><line class="cls-5" x1="337.76" y1="146.27" x2="337.76" y2="150.13"/></g><g id="LINE-59" data-name="LINE"><line class="cls-5" x1="338.78" y1="155.98" x2="338.78" y2="152.12"/></g><g id="LINE-60" data-name="LINE"><line class="cls-5" x1="337.76" y1="152.82" x2="337.76" y2="156.67"/></g><g id="LINE-61" data-name="LINE"><line class="cls-5" x1="340.82" y1="148.43" x2="340.82" y2="144.57"/></g><g id="LINE-62" data-name="LINE"><line class="cls-5" x1="339.8" y1="145.27" x2="339.8" y2="149.12"/></g><g id="LINE-63" data-name="LINE"><line class="cls-5" x1="340.82" y1="154.97" x2="340.82" y2="151.12"/></g><g id="LINE-64" data-name="LINE"><line class="cls-5" x1="339.8" y1="151.81" x2="339.8" y2="155.67"/></g><g id="LINE-65" data-name="LINE"><line class="cls-5" x1="342.86" y1="147.42" x2="342.86" y2="143.57"/></g><g id="LINE-66" data-name="LINE"><line class="cls-5" x1="341.84" y1="144.26" x2="341.84" y2="148.12"/></g><g id="LINE-67" data-name="LINE"><line class="cls-5" x1="342.86" y1="153.97" x2="342.86" y2="150.11"/></g><g id="LINE-68" data-name="LINE"><line class="cls-5" x1="341.84" y1="150.81" x2="341.84" y2="154.66"/></g><g id="LINE-69" data-name="LINE"><line class="cls-5" x1="344.9" y1="146.42" x2="344.9" y2="142.56"/></g><g id="LINE-70" data-name="LINE"><line class="cls-5" x1="343.88" y1="143.26" x2="343.88" y2="147.11"/></g><g id="LINE-71" data-name="LINE"><line class="cls-5" x1="344.9" y1="152.96" x2="344.9" y2="149.11"/></g><g id="LINE-72" data-name="LINE"><line class="cls-5" x1="343.88" y1="149.8" x2="343.88" y2="153.66"/></g><g id="LINE-73" data-name="LINE"><line class="cls-5" x1="334.47" y1="147.75" x2="334.47" y2="151.6"/></g><g id="LINE-74" data-name="LINE"><line class="cls-5" x1="335.49" y1="151.29" x2="335.49" y2="147.44"/></g><g id="LINE-75" data-name="LINE"><line class="cls-5" x1="334.47" y1="154.29" x2="334.47" y2="158.14"/></g><g id="LINE-76" data-name="LINE"><line class="cls-5" x1="335.49" y1="157.83" x2="335.49" y2="153.98"/></g><g id="LINE-77" data-name="LINE"><line class="cls-5" x1="332.43" y1="148.75" x2="332.43" y2="152.61"/></g><g id="LINE-78" data-name="LINE"><line class="cls-5" x1="333.45" y1="152.3" x2="333.45" y2="148.44"/></g><g id="LINE-79" data-name="LINE"><line class="cls-5" x1="332.43" y1="155.29" x2="332.43" y2="159.15"/></g><g id="LINE-80" data-name="LINE"><line class="cls-5" x1="333.45" y1="158.84" x2="333.45" y2="154.98"/></g><g id="LINE-81" data-name="LINE"><line class="cls-5" x1="330.39" y1="149.75" x2="330.39" y2="153.61"/></g><g id="LINE-82" data-name="LINE"><line class="cls-5" x1="331.41" y1="153.3" x2="331.41" y2="149.45"/></g><g id="LINE-83" data-name="LINE"><line class="cls-5" x1="330.39" y1="156.3" x2="330.39" y2="160.15"/></g><g id="LINE-84" data-name="LINE"><line class="cls-5" x1="328.35" y1="150.76" x2="328.35" y2="154.61"/></g><g id="LINE-85" data-name="LINE"><line class="cls-5" x1="329.37" y1="154.31" x2="329.37" y2="150.45"/></g><g id="LINE-86" data-name="LINE"><line class="cls-5" x1="328.35" y1="157.3" x2="328.35" y2="161.16"/></g><g id="LINE-87" data-name="LINE"><line class="cls-5" x1="329.37" y1="160.85" x2="329.37" y2="156.99"/></g><g id="LINE-88" data-name="LINE"><line class="cls-1" x1="223.37" y1="128.89" x2="223.37" y2="129.04"/></g><g id="LINE-89" data-name="LINE"><line class="cls-1" x1="280.38" y1="100.84" x2="280.38" y2="155.29"/></g><g id="LINE-90" data-name="LINE"><line class="cls-5" x1="267.79" y1="117.91" x2="267.79" y2="114.06"/></g><g id="LINE-91" data-name="LINE"><line class="cls-5" x1="268.81" y1="113.36" x2="268.81" y2="117.22"/></g><g id="LINE-92" data-name="LINE"><line class="cls-5" x1="267.79" y1="124.46" x2="267.79" y2="120.6"/></g><g id="LINE-93" data-name="LINE"><line class="cls-5" x1="268.81" y1="119.91" x2="268.81" y2="123.76"/></g><g id="LINE-94" data-name="LINE"><line class="cls-5" x1="269.83" y1="116.91" x2="269.83" y2="113.05"/></g><g id="LINE-95" data-name="LINE"><line class="cls-5" x1="270.85" y1="112.36" x2="270.85" y2="116.21"/></g><g id="LINE-96" data-name="LINE"><line class="cls-5" x1="269.83" y1="123.45" x2="269.83" y2="119.6"/></g><g id="LINE-97" data-name="LINE"><line class="cls-5" x1="270.85" y1="118.9" x2="270.85" y2="122.76"/></g><g id="LINE-98" data-name="LINE"><line class="cls-5" x1="271.87" y1="115.9" x2="271.87" y2="112.05"/></g><g id="LINE-99" data-name="LINE"><line class="cls-5" x1="272.89" y1="111.35" x2="272.89" y2="115.21"/></g><g id="LINE-100" data-name="LINE"><line class="cls-5" x1="271.87" y1="122.45" x2="271.87" y2="118.59"/></g><g id="LINE-101" data-name="LINE"><line class="cls-5" x1="272.89" y1="117.9" x2="272.89" y2="121.75"/></g><g id="LINE-102" data-name="LINE"><line class="cls-5" x1="273.91" y1="114.9" x2="273.91" y2="111.05"/></g><g id="LINE-103" data-name="LINE"><line class="cls-5" x1="274.93" y1="110.35" x2="274.93" y2="114.2"/></g><g id="LINE-104" data-name="LINE"><line class="cls-5" x1="273.91" y1="121.44" x2="273.91" y2="117.59"/></g><g id="LINE-105" data-name="LINE"><line class="cls-5" x1="274.93" y1="116.89" x2="274.93" y2="120.75"/></g><g id="LINE-106" data-name="LINE"><line class="cls-5" x1="265.52" y1="115.22" x2="265.52" y2="119.08"/></g><g id="LINE-107" data-name="LINE"><line class="cls-5" x1="264.5" y1="119.39" x2="264.5" y2="115.53"/></g><g id="LINE-108" data-name="LINE"><line class="cls-5" x1="265.52" y1="121.77" x2="265.52" y2="125.62"/></g><g id="LINE-109" data-name="LINE"><line class="cls-5" x1="264.5" y1="125.93" x2="264.5" y2="122.07"/></g><g id="LINE-110" data-name="LINE"><line class="cls-5" x1="263.48" y1="116.23" x2="263.48" y2="120.08"/></g><g id="LINE-111" data-name="LINE"><line class="cls-5" x1="262.46" y1="120.39" x2="262.46" y2="116.54"/></g><g id="LINE-112" data-name="LINE"><line class="cls-5" x1="263.48" y1="122.77" x2="263.48" y2="126.62"/></g><g id="LINE-113" data-name="LINE"><line class="cls-5" x1="262.46" y1="126.93" x2="262.46" y2="123.08"/></g><g id="LINE-114" data-name="LINE"><line class="cls-5" x1="261.43" y1="117.23" x2="261.43" y2="121.09"/></g><g id="LINE-115" data-name="LINE"><line class="cls-5" x1="260.41" y1="121.39" x2="260.41" y2="117.54"/></g><g id="LINE-116" data-name="LINE"><line class="cls-5" x1="261.43" y1="123.77" x2="261.43" y2="127.63"/></g><g id="LINE-117" data-name="LINE"><line class="cls-5" x1="260.41" y1="127.94" x2="260.41" y2="124.08"/></g><g id="LINE-118" data-name="LINE"><line class="cls-5" x1="259.39" y1="118.24" x2="259.39" y2="122.09"/></g><g id="LINE-119" data-name="LINE"><line class="cls-5" x1="258.37" y1="122.4" x2="258.37" y2="118.54"/></g><g id="LINE-120" data-name="LINE"><line class="cls-5" x1="259.39" y1="124.78" x2="259.39" y2="128.63"/></g><g id="LINE-121" data-name="LINE"><line class="cls-5" x1="258.37" y1="128.94" x2="258.37" y2="125.09"/></g><g id="LINE-122" data-name="LINE"><line class="cls-1" x1="223.4" y1="129.06" x2="292.86" y2="161.04"/></g><g id="LINE-123" data-name="LINE"><line class="cls-1" x1="293.21" y1="161.05" x2="350.22" y2="132.99"/></g><g id="LINE-124" data-name="LINE"><line class="cls-1" x1="280.24" y1="100.78" x2="280.38" y2="100.84"/></g><g id="SPLINE-39" data-name="SPLINE"><path class="cls-1" d="M223.37,128.89c-.1.05-.09.1,0,.17"/></g><g id="LINE-125" data-name="LINE"><line class="cls-1" x1="350.35" y1="133.05" x2="350.22" y2="132.99"/></g><g id="SPLINE-40" data-name="SPLINE"><path class="cls-5" d="M267.79,114.06a2.57,2.57,0,0,1,0-.39,1.59,1.59,0,0,1,.16-.41.66.66,0,0,1,.55-.37c.19,0,.3.22.3.47"/></g><g id="SPLINE-41" data-name="SPLINE"><path class="cls-5" d="M338.78,145.58c0-.26-.11-.45-.29-.47s-.4.12-.55.37a1.16,1.16,0,0,0-.16.4,1.76,1.76,0,0,0,0,.39"/></g><g id="SPLINE-42" data-name="SPLINE"><path class="cls-5" d="M337.76,150.13c0,.26.11.45.3.47a.63.63,0,0,0,.54-.37,1.21,1.21,0,0,0,.16-.41,1.73,1.73,0,0,0,0-.39"/></g><g id="SPLINE-43" data-name="SPLINE"><path class="cls-5" d="M267.79,120.6a2.57,2.57,0,0,1,0-.39,1.4,1.4,0,0,1,.16-.4.66.66,0,0,1,.55-.38c.19,0,.3.22.3.48"/></g><g id="SPLINE-44" data-name="SPLINE"><path class="cls-5" d="M338.78,152.12c0-.26-.11-.45-.29-.47a.63.63,0,0,0-.55.37,1.21,1.21,0,0,0-.16.41,1.73,1.73,0,0,0,0,.39"/></g><g id="SPLINE-45" data-name="SPLINE"><path class="cls-5" d="M337.76,156.67c0,.26.11.45.3.47s.39-.12.54-.37a1.13,1.13,0,0,0,.16-.41,1.67,1.67,0,0,0,0-.38"/></g><g id="SPLINE-46" data-name="SPLINE"><path class="cls-5" d="M268.81,123.76a2.61,2.61,0,0,1,0,.39,1.29,1.29,0,0,1-.16.41.65.65,0,0,1-.55.37c-.18,0-.3-.21-.29-.47"/></g><g id="SPLINE-47" data-name="SPLINE"><path class="cls-5" d="M269.83,113.05a1.67,1.67,0,0,1,0-.38,1.12,1.12,0,0,1,.15-.41c.16-.25.37-.4.55-.37s.3.21.3.47"/></g><g id="SPLINE-48" data-name="SPLINE"><path class="cls-5" d="M340.82,144.57c0-.25-.1-.44-.29-.47a.65.65,0,0,0-.55.37,1.29,1.29,0,0,0-.16.41,1.73,1.73,0,0,0,0,.39"/></g><g id="SPLINE-49" data-name="SPLINE"><path class="cls-5" d="M339.8,149.12c0,.26.11.45.3.48a.67.67,0,0,0,.55-.38,1.38,1.38,0,0,0,.15-.4,1.73,1.73,0,0,0,0-.39"/></g><g id="SPLINE-50" data-name="SPLINE"><path class="cls-5" d="M270.85,116.21a1.73,1.73,0,0,1,0,.39,1.21,1.21,0,0,1-.16.41.63.63,0,0,1-.55.37c-.18,0-.29-.21-.29-.47"/></g><g id="SPLINE-51" data-name="SPLINE"><path class="cls-5" d="M269.83,119.6a1.73,1.73,0,0,1,0-.39,1.19,1.19,0,0,1,.15-.41.65.65,0,0,1,.55-.37c.19,0,.3.21.3.47"/></g><g id="SPLINE-52" data-name="SPLINE"><path class="cls-5" d="M340.82,151.12c0-.26-.1-.45-.29-.48a.64.64,0,0,0-.55.38,1.16,1.16,0,0,0-.16.4,1.73,1.73,0,0,0,0,.39"/></g><g id="SPLINE-53" data-name="SPLINE"><path class="cls-5" d="M339.8,155.67c0,.26.11.45.3.47a.68.68,0,0,0,.55-.37,1.56,1.56,0,0,0,.15-.41,1.73,1.73,0,0,0,0-.39"/></g><g id="SPLINE-54" data-name="SPLINE"><path class="cls-5" d="M270.85,122.76a1.73,1.73,0,0,1,0,.39,1.16,1.16,0,0,1-.16.4c-.15.25-.36.4-.55.37s-.29-.21-.29-.47"/></g><g id="SPLINE-55" data-name="SPLINE"><path class="cls-5" d="M271.87,112.05a1.73,1.73,0,0,1,0-.39,1.29,1.29,0,0,1,.16-.41.65.65,0,0,1,.55-.37c.18,0,.29.22.29.47"/></g><g id="SPLINE-56" data-name="SPLINE"><path class="cls-5" d="M342.86,143.57c0-.26-.1-.45-.29-.47a.62.62,0,0,0-.55.37,1.13,1.13,0,0,0-.16.41,1.67,1.67,0,0,0,0,.38"/></g><g id="SPLINE-57" data-name="SPLINE"><path class="cls-5" d="M341.84,148.12c0,.26.11.45.3.47a.64.64,0,0,0,.55-.37,1.19,1.19,0,0,0,.15-.41,1.73,1.73,0,0,0,0-.39"/></g><g id="SPLINE-58" data-name="SPLINE"><path class="cls-5" d="M272.89,115.21a1.73,1.73,0,0,1,0,.39,1.29,1.29,0,0,1-.16.41.65.65,0,0,1-.54.37c-.19,0-.3-.22-.3-.48"/></g><g id="SPLINE-59" data-name="SPLINE"><path class="cls-5" d="M271.87,118.59a1.73,1.73,0,0,1,0-.39,1.16,1.16,0,0,1,.16-.4.64.64,0,0,1,.55-.38c.18,0,.29.22.29.48"/></g><g id="SPLINE-60" data-name="SPLINE"><path class="cls-5" d="M342.86,150.11c0-.26-.1-.45-.29-.47a.64.64,0,0,0-.55.37,1.21,1.21,0,0,0-.16.41,1.73,1.73,0,0,0,0,.39"/></g><g id="SPLINE-61" data-name="SPLINE"><path class="cls-5" d="M341.84,154.66c0,.26.11.45.3.47a.62.62,0,0,0,.55-.37,1.14,1.14,0,0,0,.15-.4,1.73,1.73,0,0,0,0-.39"/></g><g id="SPLINE-62" data-name="SPLINE"><path class="cls-5" d="M272.89,121.75a1.73,1.73,0,0,1,0,.39,1.29,1.29,0,0,1-.16.41.65.65,0,0,1-.54.37c-.19,0-.3-.21-.3-.47"/></g><g id="SPLINE-63" data-name="SPLINE"><path class="cls-5" d="M273.91,111.05a1.73,1.73,0,0,1,0-.39,1.13,1.13,0,0,1,.16-.41c.15-.25.36-.4.55-.37s.29.21.29.47"/></g><g id="SPLINE-64" data-name="SPLINE"><path class="cls-5" d="M344.9,142.56c0-.25-.1-.44-.29-.47a.66.66,0,0,0-.55.37,1.29,1.29,0,0,0-.16.41,2.61,2.61,0,0,0,0,.39"/></g><g id="SPLINE-65" data-name="SPLINE"><path class="cls-5" d="M343.88,147.11c0,.26.11.45.3.48a.66.66,0,0,0,.55-.37,1.59,1.59,0,0,0,.16-.41,2.57,2.57,0,0,0,0-.39"/></g><g id="SPLINE-66" data-name="SPLINE"><path class="cls-5" d="M274.93,114.2a1.73,1.73,0,0,1,0,.39,1.13,1.13,0,0,1-.16.41.63.63,0,0,1-.54.37c-.19,0-.3-.21-.3-.47"/></g><g id="SPLINE-67" data-name="SPLINE"><path class="cls-5" d="M273.91,117.59a1.73,1.73,0,0,1,0-.39,1.21,1.21,0,0,1,.16-.41.63.63,0,0,1,.55-.37c.18,0,.29.21.29.47"/></g><g id="SPLINE-68" data-name="SPLINE"><path class="cls-5" d="M344.9,149.11c0-.26-.1-.45-.29-.48a.66.66,0,0,0-.55.38,1.16,1.16,0,0,0-.16.4,2.61,2.61,0,0,0,0,.39"/></g><g id="SPLINE-69" data-name="SPLINE"><path class="cls-5" d="M343.88,153.66c0,.26.11.45.3.47a.66.66,0,0,0,.55-.37,1.59,1.59,0,0,0,.16-.41,2.57,2.57,0,0,0,0-.39"/></g><g id="SPLINE-70" data-name="SPLINE"><path class="cls-5" d="M274.93,120.75a1.73,1.73,0,0,1,0,.39,1.16,1.16,0,0,1-.16.4c-.15.25-.36.4-.54.37s-.3-.21-.3-.47"/></g><g id="SPLINE-71" data-name="SPLINE"><path class="cls-5" d="M335.49,147.44a1.48,1.48,0,0,0,0-.37.4.4,0,0,0-.16-.26c-.15-.09-.36,0-.55.18a1.21,1.21,0,0,0-.29.76"/></g><g id="SPLINE-72" data-name="SPLINE"><path class="cls-5" d="M264.5,115.53a1.13,1.13,0,0,1,.29-.76c.18-.2.4-.27.55-.17a.38.38,0,0,1,.16.25,1.51,1.51,0,0,1,0,.37"/></g><g id="SPLINE-73" data-name="SPLINE"><path class="cls-5" d="M265.52,119.08a1.19,1.19,0,0,1-.3.76c-.18.2-.4.27-.55.17a.37.37,0,0,1-.15-.25,1.53,1.53,0,0,1,0-.37"/></g><g id="SPLINE-74" data-name="SPLINE"><path class="cls-5" d="M334.47,151.6a1.48,1.48,0,0,0,0,.37.38.38,0,0,0,.16.25c.15.1.36,0,.55-.16a1.2,1.2,0,0,0,.29-.77"/></g><g id="SPLINE-75" data-name="SPLINE"><path class="cls-5" d="M335.49,154a1.48,1.48,0,0,0,0-.37.38.38,0,0,0-.16-.25c-.15-.1-.36,0-.55.17a1.21,1.21,0,0,0-.29.76"/></g><g id="SPLINE-76" data-name="SPLINE"><path class="cls-5" d="M264.5,122.07a1.15,1.15,0,0,1,.29-.76c.18-.2.4-.27.55-.17a.38.38,0,0,1,.16.25,1.59,1.59,0,0,1,0,.38"/></g><g id="SPLINE-77" data-name="SPLINE"><path class="cls-5" d="M265.52,125.62a1.19,1.19,0,0,1-.3.76c-.18.21-.4.27-.55.17a.37.37,0,0,1-.15-.25,1.51,1.51,0,0,1,0-.37"/></g><g id="SPLINE-78" data-name="SPLINE"><path class="cls-5" d="M334.47,158.14a1.48,1.48,0,0,0,0,.37.4.4,0,0,0,.16.26c.15.09.36,0,.55-.17a1.2,1.2,0,0,0,.29-.77"/></g><g id="SPLINE-79" data-name="SPLINE"><path class="cls-5" d="M333.45,148.44a1.51,1.51,0,0,0,0-.37.38.38,0,0,0-.16-.25c-.15-.1-.36,0-.55.17a1.18,1.18,0,0,0-.29.76"/></g><g id="SPLINE-80" data-name="SPLINE"><path class="cls-5" d="M262.46,116.54a1.11,1.11,0,0,1,.29-.76c.18-.21.4-.27.55-.18a.44.44,0,0,1,.16.26,2.17,2.17,0,0,1,0,.37"/></g><g id="SPLINE-81" data-name="SPLINE"><path class="cls-5" d="M263.48,120.08a1.21,1.21,0,0,1-.3.77c-.18.2-.4.26-.55.16a.42.42,0,0,1-.16-.25,2.22,2.22,0,0,1,0-.37"/></g><g id="SPLINE-82" data-name="SPLINE"><path class="cls-5" d="M332.43,152.61a1.53,1.53,0,0,0,0,.37.38.38,0,0,0,.16.25c.15.1.36,0,.54-.17a1.19,1.19,0,0,0,.3-.76"/></g><g id="SPLINE-83" data-name="SPLINE"><path class="cls-5" d="M333.45,155a1.53,1.53,0,0,0,0-.37.38.38,0,0,0-.16-.25c-.15-.1-.36,0-.55.17a1.2,1.2,0,0,0-.29.76"/></g><g id="SPLINE-84" data-name="SPLINE"><path class="cls-5" d="M262.46,123.08a1.11,1.11,0,0,1,.29-.76c.18-.21.4-.27.55-.17a.42.42,0,0,1,.16.25,2.17,2.17,0,0,1,0,.37"/></g><g id="SPLINE-85" data-name="SPLINE"><path class="cls-5" d="M263.48,126.62a1.21,1.21,0,0,1-.3.77.46.46,0,0,1-.55.17.44.44,0,0,1-.16-.26,2.22,2.22,0,0,1,0-.37"/></g><g id="SPLINE-86" data-name="SPLINE"><path class="cls-5" d="M332.43,159.15a1.51,1.51,0,0,0,0,.37.38.38,0,0,0,.16.25c.15.1.36,0,.54-.17a1.19,1.19,0,0,0,.3-.76"/></g><g id="SPLINE-87" data-name="SPLINE"><path class="cls-5" d="M331.41,149.45a1.48,1.48,0,0,0,0-.37.4.4,0,0,0-.16-.26.46.46,0,0,0-.55.17,1.15,1.15,0,0,0-.29.76"/></g><g id="SPLINE-88" data-name="SPLINE"><path class="cls-5" d="M260.41,117.54a1.19,1.19,0,0,1,.3-.76c.18-.2.4-.27.55-.17a.42.42,0,0,1,.16.25,2.26,2.26,0,0,1,0,.37"/></g><g id="SPLINE-89" data-name="SPLINE"><path class="cls-5" d="M261.43,121.09a1.13,1.13,0,0,1-.29.76c-.18.2-.4.27-.55.17a.42.42,0,0,1-.16-.25,2.36,2.36,0,0,1,0-.38"/></g><g id="SPLINE-90" data-name="SPLINE"><path class="cls-5" d="M330.39,153.61a1.48,1.48,0,0,0,0,.37.41.41,0,0,0,.15.25c.15.1.37,0,.55-.16a1.21,1.21,0,0,0,.3-.77"/></g><g id="SPLINE-91" data-name="SPLINE"><path class="cls-5" d="M331.41,156a1.48,1.48,0,0,0,0-.37.38.38,0,0,0-.16-.25c-.15-.1-.37,0-.55.17a1.11,1.11,0,0,0-.29.76"/></g><g id="SPLINE-92" data-name="SPLINE"><path class="cls-5" d="M260.41,124.08a1.21,1.21,0,0,1,.3-.76c.18-.2.4-.27.55-.17a.42.42,0,0,1,.16.25,2.29,2.29,0,0,1,0,.37"/></g><g id="SPLINE-93" data-name="SPLINE"><path class="cls-5" d="M261.43,127.63a1.13,1.13,0,0,1-.29.76c-.18.21-.4.27-.55.17a.42.42,0,0,1-.16-.25,2.23,2.23,0,0,1,0-.37"/></g><g id="SPLINE-94" data-name="SPLINE"><path class="cls-5" d="M330.39,160.15a1.48,1.48,0,0,0,0,.37.38.38,0,0,0,.15.25c.15.1.37,0,.55-.16a1.21,1.21,0,0,0,.3-.77"/></g><g id="SPLINE-95" data-name="SPLINE"><path class="cls-5" d="M329.37,150.45a2.17,2.17,0,0,0,0-.37.42.42,0,0,0-.16-.25c-.15-.1-.37,0-.55.17a1.13,1.13,0,0,0-.29.76"/></g><g id="SPLINE-96" data-name="SPLINE"><path class="cls-5" d="M258.37,118.54a1.21,1.21,0,0,1,.3-.76.46.46,0,0,1,.55-.17.39.39,0,0,1,.15.26,1.48,1.48,0,0,1,0,.37"/></g><g id="SPLINE-97" data-name="SPLINE"><path class="cls-5" d="M259.39,122.09a1.11,1.11,0,0,1-.29.76c-.19.21-.4.27-.55.17a.42.42,0,0,1-.16-.25,1.48,1.48,0,0,1,0-.37"/></g><g id="SPLINE-98" data-name="SPLINE"><path class="cls-5" d="M328.35,154.61a1.59,1.59,0,0,0,0,.38.37.37,0,0,0,.15.25c.15.1.37,0,.55-.17a1.19,1.19,0,0,0,.3-.76"/></g><g id="SPLINE-99" data-name="SPLINE"><path class="cls-5" d="M329.37,157a2.23,2.23,0,0,0,0-.37.42.42,0,0,0-.16-.25c-.15-.1-.37,0-.55.17a1.13,1.13,0,0,0-.29.76"/></g><g id="SPLINE-100" data-name="SPLINE"><path class="cls-5" d="M258.37,125.09a1.17,1.17,0,0,1,.3-.76c.18-.21.4-.27.55-.17a.37.37,0,0,1,.15.25,1.48,1.48,0,0,1,0,.37"/></g><g id="SPLINE-101" data-name="SPLINE"><path class="cls-5" d="M259.39,128.63a1.15,1.15,0,0,1-.29.77c-.19.2-.4.26-.55.17a.44.44,0,0,1-.16-.26,1.48,1.48,0,0,1,0-.37"/></g><g id="SPLINE-102" data-name="SPLINE"><path class="cls-5" d="M328.35,161.16a1.51,1.51,0,0,0,0,.37.37.37,0,0,0,.15.25c.15.1.37,0,.55-.17a1.19,1.19,0,0,0,.3-.76"/></g><g id="LINE-126" data-name="LINE"><line class="cls-1" x1="223.1" y1="359.23" x2="223.13" y2="128.97"/></g><g id="LINE-127" data-name="LINE"><line class="cls-2" x1="350.35" y1="133.05" x2="386.53" y2="115.24"/></g><g id="LINE-128" data-name="LINE"><line class="cls-2" x1="280.38" y1="100.84" x2="316.56" y2="83.03"/></g><g id="LINE-129" data-name="LINE"><line class="cls-2" x1="175.81" y1="107.3" x2="222.92" y2="128.99"/></g><g id="LINE-130" data-name="LINE"><line class="cls-2" x1="232.66" y1="79.02" x2="279.76" y2="100.71"/></g><g id="LINE-131" data-name="LINE"><line class="cls-5" x1="331.41" y1="159.84" x2="331.41" y2="155.99"/></g><g id="SPLINE-103" data-name="SPLINE"><path class="cls-5" d="M268.81,117.22a2.61,2.61,0,0,1,0,.39,1.16,1.16,0,0,1-.16.4.64.64,0,0,1-.55.38c-.18,0-.3-.22-.29-.48"/></g><g id="LINE-132" data-name="LINE"><line class="cls-1" x1="306.31" y1="445.14" x2="108.22" y2="355.43"/></g><g id="LINE-133" data-name="LINE"><line class="cls-2" x1="453.41" y1="177.91" x2="350.35" y2="133.05"/></g><g id="LINE-134" data-name="LINE"><line class="cls-1" x1="415.3" y1="405.01" x2="415.35" y2="393.07"/></g><g id="SPLINE-104" data-name="SPLINE"><path class="cls-2" d="M306.31,458.64c-24.17,11.89-21.5,10.42-45.67,22.32"/></g><g id="SPLINE-105" data-name="SPLINE"><path class="cls-2" d="M108.22,367.32c-24.17,11.89-21.49,10.42-45.67,22.32"/></g><g id="LINE-135" data-name="LINE"><line class="cls-1" x1="293.35" y1="161.11" x2="293.44" y2="391.21"/></g></g><g id="Layer_7" data-name="Layer 7"><g id="MTEXT"><path class="cls-3" d="M349.57,85c-2.34-1.08-3.67-3.19-2.55-5.94l1.5.69a2.89,2.89,0,0,0,1.67,3.91,3,3,0,0,0,4.19-1.57c.82-1.79.43-3.29-1.6-4.22l-.31-.15.6-1.31.32.14A2.63,2.63,0,0,0,357.28,75a2.74,2.74,0,0,0-1.34-3.91,2.78,2.78,0,0,0-3.82,1.25l-1.5-.69a4.35,4.35,0,0,1,5.93-1.9,4.24,4.24,0,0,1,2.24,5.92,3.67,3.67,0,0,1-3.52,2.37,3.85,3.85,0,0,1,.6,4.69C354.61,85.5,352,86.07,349.57,85Z"/><path class="cls-3" d="M360.69,89.9l6.08-13.2-3.9,1.16.78-1.71L367.54,75l1.5.69L362.2,90.59Z"/><path class="cls-3" d="M371.6,95.07a4.31,4.31,0,0,1-2.18-6l3.19-6.93a4.48,4.48,0,1,1,8.14,3.75l-3.19,6.93A4.31,4.31,0,0,1,371.6,95.07Zm7.61-9.76c.75-1.63.39-3.26-1.26-4s-3.13,0-3.88,1.65L371,89.71c-.75,1.63-.39,3.27,1.26,4s3.13,0,3.88-1.66Z"/></g><g id="MTEXT-2" data-name="MTEXT"><path class="cls-3" d="M182.48,86.67l-.65-1.31L184,75.13a3.71,3.71,0,0,0-.25-2.57,2.85,2.85,0,1,0-5.09,2.56l-1.49.74a4.27,4.27,0,0,1,2.06-6,4.2,4.2,0,0,1,6,1.95,4.87,4.87,0,0,1,.31,3.55l-1.87,9.1,6.3-3.14.65,1.32Z"/><path class="cls-3" d="M196.44,79.73l-1.56.78-1.56-15.87-5.1,2.54,1.15,2.3-1.47.73-1.8-3.62,8.13-4.05.66,1.32Z"/><path class="cls-3" d="M210.44,71.58a4.4,4.4,0,0,1-2.38,2.55,4.6,4.6,0,0,1-3.46.41,4.35,4.35,0,0,1-2.3-2l1.48-.74a2.55,2.55,0,0,0,3.63,1,2.85,2.85,0,0,0,1.47-1.58,4.59,4.59,0,0,0-.68-3.39c-.89-1.79-2.12-3.39-4.24-2.33a2.6,2.6,0,0,0-1.71,2.65l-1.34.66-3.83-7.69,7.41-3.69.65,1.32-6.07,3,2.31,4.65a3.84,3.84,0,0,1,2.14-2.32,3.9,3.9,0,0,1,3-.33,5.87,5.87,0,0,1,3.17,3.32C210.41,68.57,211,70,210.44,71.58Z"/></g><g id="MTEXT-3" data-name="MTEXT"><path class="cls-3" d="M485.61,366.21H473.17l9.87,4.48v1.49l-9.87,4.56h12.44v1.74H469.24v-1.74l11.61-5.34-11.61-5.19v-1.75h16.37Z"/><path class="cls-3" d="M485.61,359.72H469.24V358h16.37Z"/><path class="cls-3" d="M485.61,342.79l-13.13,8.69h13.13v1.75H469.24v-1.65l13.09-8.7H469.24v-1.74h16.37Z"/><path class="cls-3" d="M483,324h2.59v1.64H483v6.53h-1.5l-12.28-5.91v-1.77l12.28,5.91v-4.76h-4.64V324h4.64v-2H483Z"/><path class="cls-3" d="M485.75,315a4.59,4.59,0,0,1-4.64,4.83,4.45,4.45,0,0,1-4-2.46,4,4,0,0,1-3.63,2.14,4.51,4.51,0,0,1,0-9,4,4,0,0,1,3.63,2.12,4.44,4.44,0,0,1,4-2.44A4.59,4.59,0,0,1,485.75,315Zm-15.17,0a2.93,2.93,0,1,0,2.94-2.85A2.79,2.79,0,0,0,470.58,315Zm7.31,0a3.2,3.2,0,1,0,3.19-3.17A3.13,3.13,0,0,0,477.89,315Z"/><path class="cls-3" d="M485.75,303a4.31,4.31,0,0,1-4.5,4.49h-7.64a4.49,4.49,0,1,1,0-9h7.64A4.31,4.31,0,0,1,485.75,303ZM473.7,300.2c-1.79,0-3.12,1-3.12,2.82s1.33,2.83,3.12,2.83h7.45c1.8,0,3.13-1,3.13-2.83s-1.33-2.82-3.13-2.82Z"/><path class="cls-3" d="M480.19,289.55h-1.54v-6.31h1.54Z"/><path class="cls-3" d="M485.61,261.12H473.17L483,265.6v1.5l-9.87,4.55h12.44v1.75H469.24v-1.75l11.61-5.33-11.61-5.2v-1.75h16.37Z"/><path class="cls-3" d="M485.61,245.09l-3.7,1.31v7.15l3.7,1.31v1.86l-16.37-6v-1.47l16.37-6Zm-13.86,4.85,8.64,3.08v-6.11Z"/><path class="cls-3" d="M485.61,232.65l-6.87,4,6.87,4v2l-8.39-5-8,4.69v-2l6.46-3.64L469.24,233v-2l8,4.71,8.39-5.06Z"/><path class="cls-3" d="M477.5,215.07l8.11,4v1.72l-7.35-3.68a4.27,4.27,0,0,1,.34,1.75c0,2.55-2,4.23-4.64,4.23s-4.86-1.75-4.86-4.53a4.36,4.36,0,0,1,4.72-4.55A8.08,8.08,0,0,1,477.5,215.07Zm-6.92,3.52c0,1.75,1.31,2.88,3.31,2.88,1.81,0,3.31-1,3.31-2.88s-1.29-2.9-3.31-2.9S470.58,216.84,470.58,218.59Z"/><path class="cls-3" d="M484.56,203.23a4.4,4.4,0,0,1,1.22,3.26,4.56,4.56,0,0,1-1.18,3.29,4.34,4.34,0,0,1-2.85,1.15v-1.65a2.55,2.55,0,0,0,2.55-2.79,2.82,2.82,0,0,0-.76-2,4.56,4.56,0,0,0-3.33-.9c-2,0-4,.39-4,2.76a2.64,2.64,0,0,0,1.61,2.72v1.49h-8.6v-8.28h1.47v6.79h5.2a4.39,4.39,0,0,1-.09-5.78,5.9,5.9,0,0,1,4.39-1.35C481.84,201.92,483.38,202.06,484.56,203.23Z"/><path class="cls-3" d="M485.75,194.54a4.31,4.31,0,0,1-4.5,4.48h-7.64a4.49,4.49,0,1,1,0-9h7.64A4.31,4.31,0,0,1,485.75,194.54Zm-12.05-2.83c-1.79,0-3.12,1-3.12,2.83s1.33,2.82,3.12,2.82h7.45c1.8,0,3.13-1,3.13-2.82s-1.33-2.83-3.13-2.83Z"/></g><g id="MTEXT-4" data-name="MTEXT"><path class="cls-3" d="M483,422.69h2.6v1.63H483v6.53h-1.5l-12.28-5.91v-1.77l12.28,5.91v-4.76h-4.64v-1.63h4.64v-2H483Z"/><path class="cls-3" d="M485.75,413.76a4.31,4.31,0,0,1-4.5,4.49h-7.64a4.49,4.49,0,1,1,0-9h7.64A4.31,4.31,0,0,1,485.75,413.76Zm-12.05-2.82c-1.79,0-3.12,1-3.12,2.82s1.33,2.83,3.12,2.83h7.45c1.8,0,3.13-1,3.13-2.83s-1.33-2.82-3.13-2.82Z"/></g><g id="MTEXT-5" data-name="MTEXT"><path class="cls-3" d="M74,429.21A4.35,4.35,0,0,1,71.82,423a8.1,8.1,0,0,1,2.48-2.91l7-5.68,1.55.71-6.4,5.15a4.11,4.11,0,0,1,1.71.41c2.31,1.07,3,3.56,1.91,6S76.51,430.37,74,429.21Zm3.37-7.36c-1.59-.73-3.15,0-4,1.8s-.36,3.48,1.23,4.21,3.17,0,4-1.79C79.35,424.42,79.06,422.64,77.35,421.85Z"/><path class="cls-3" d="M84.84,434.22a4.31,4.31,0,0,1-2.18-6l3.19-6.94A4.49,4.49,0,1,1,94,425.07L90.8,432A4.33,4.33,0,0,1,84.84,434.22Zm7.61-9.76c.76-1.63.39-3.27-1.26-4s-3.12,0-3.87,1.66l-3.12,6.76c-.75,1.63-.39,3.27,1.26,4s3.12,0,3.88-1.66Z"/><path class="cls-3" d="M95.75,439.24a4.31,4.31,0,0,1-2.19-6l3.19-6.93a4.49,4.49,0,1,1,8.15,3.75L101.7,437A4.3,4.3,0,0,1,95.75,439.24Zm7.61-9.76c.75-1.63.39-3.26-1.26-4s-3.13,0-3.88,1.65l-3.12,6.77c-.75,1.63-.39,3.26,1.26,4s3.13,0,3.88-1.65Z"/><path class="cls-3" d="M110.32,439.83l.64-1.4,5.72,2.64-.64,1.4Z"/><path class="cls-3" d="M125.23,452.68l-1.58-.73L135,440.79l-5.18-2.38-1.08,2.33-1.48-.68,1.7-3.67,8.25,3.8-.62,1.33Z"/><path class="cls-3" d="M140.36,458.49a4.45,4.45,0,0,1-3.48-.26,4.63,4.63,0,0,1-2.49-2.44,4.4,4.4,0,0,1,.15-3.08l1.5.7a2.55,2.55,0,0,0,1.46,3.48,2.88,2.88,0,0,0,2.16.16,4.61,4.61,0,0,0,2.21-2.65c.83-1.82,1.31-3.78-.84-4.77a2.62,2.62,0,0,0-3.14.32l-1.36-.62,3.6-7.81,7.52,3.46-.62,1.34-6.16-2.84-2.17,4.72a3.82,3.82,0,0,1,3.14.21,3.92,3.92,0,0,1,2.14,2.12,6,6,0,0,1-.61,4.56C142.69,456.57,141.92,457.91,140.36,458.49Z"/><path class="cls-3" d="M147.76,463.21a4.31,4.31,0,0,1-2.19-6l3.19-6.93a4.49,4.49,0,1,1,8.15,3.75l-3.2,6.93A4.3,4.3,0,0,1,147.76,463.21Zm7.61-9.76c.75-1.63.39-3.26-1.26-4s-3.13,0-3.88,1.65l-3.12,6.77c-.75,1.63-.39,3.26,1.26,4s3.13,0,3.88-1.66Z"/><path class="cls-3" d="M162.33,463.8l.64-1.4,5.72,2.64-.64,1.4Z"/><path class="cls-3" d="M184.57,471.09l-7,5.69-1.57-.73,6.42-5.14a4.18,4.18,0,0,1-1.73-.42c-2.32-1.07-3-3.54-1.9-6s3.62-3.67,6.15-2.51a4.36,4.36,0,0,1,2.16,6.19A8.2,8.2,0,0,1,184.57,471.09Zm-.3-7.76c-1.59-.73-3.16,0-4,1.8-.76,1.65-.48,3.42,1.23,4.21s3.17.05,4-1.79S185.86,464.06,184.27,463.33Z"/><path class="cls-3" d="M188.86,482.16a4.31,4.31,0,0,1-2.18-6l3.19-6.94A4.49,4.49,0,1,1,198,473l-3.2,6.93A4.32,4.32,0,0,1,188.86,482.16Zm7.61-9.76c.76-1.63.4-3.27-1.26-4s-3.12,0-3.87,1.66l-3.12,6.77c-.75,1.63-.39,3.26,1.26,4s3.13,0,3.88-1.66Z"/><path class="cls-3" d="M199.77,487.18a4.31,4.31,0,0,1-2.19-6l3.2-6.93a4.48,4.48,0,1,1,8.14,3.75l-3.2,6.94A4.31,4.31,0,0,1,199.77,487.18Zm7.61-9.76c.75-1.63.39-3.26-1.26-4s-3.13,0-3.88,1.66l-3.12,6.76c-.75,1.63-.39,3.27,1.26,4s3.13,0,3.88-1.66Z"/></g><g id="MTEXT-6" data-name="MTEXT"><path class="cls-3" d="M414.6,475a4.42,4.42,0,0,1-2.39,2.53,4.57,4.57,0,0,1-3.47.4,4.39,4.39,0,0,1-2.29-2l1.49-.73a2.55,2.55,0,0,0,3.62,1.06,2.83,2.83,0,0,0,1.48-1.57,4.54,4.54,0,0,0-.67-3.39c-.88-1.79-2.1-3.4-4.23-2.35a2.61,2.61,0,0,0-1.72,2.64l-1.34.66-3.8-7.71,7.43-3.66.65,1.32-6.09,3,2.29,4.66a4.41,4.41,0,0,1,5.14-2.63,5.89,5.89,0,0,1,3.16,3.34C414.58,472,415.14,473.4,414.6,475Z"/><path class="cls-3" d="M422.81,472.11l-6.42-13-1.56,3.76-.83-1.69,1.58-3.72,1.48-.73,7.23,14.69Z"/><path class="cls-3" d="M433.7,466.9a4.31,4.31,0,0,1-6-2.06L424.32,458a4.49,4.49,0,1,1,8.05-4l3.37,6.85A4.32,4.32,0,0,1,433.7,466.9Zm-2.78-12.06c-.79-1.61-2.29-2.36-3.92-1.56s-1.95,2.45-1.16,4.06l3.29,6.68c.8,1.61,2.29,2.36,3.92,1.56s1.95-2.44,1.16-4.05Z"/></g></g></svg>